<svg id="icon-stack" viewBox="0 0 20 20" width="100%" height="100%"><title>stack</title><svg xmlns="http://www.w3.org/2000/svg" viewBox="0 0 20 20"><title>Stack</title><desc>An icon describing a hand of cards.</desc><path fill="none" d="M12.982 13.175v-8.91a.073.073 0 0 0-.07-.073H7.65a.073.073 0 0 0-.072.072v.652l.286-.07a1.01 1.01 0 0 1 1.208.727l1.458 5.866.45 1.808h1.932c.037 0 .07-.036.07-.073z"></path><path fill="none" d="M10.14 13.71l-.067-.273-.047-.19-1.853-7.452a.074.074 0 0 0-.07-.055l-.525.13-.462.115-.463.115-3.673.912a.072.072 0 0 0-.052.087l2.15 8.647c.01.042.05.06.086.053l3.777-.94.457-.112.47-.117.403-.1a.075.075 0 0 0 .053-.086l-.068-.272-.115-.463zM13.908 6.27v6.905c0 .55-.447.996-.997.996h-1.703l.014.05a.99.99 0 0 1-.09.702l3.888.887c.027 0 .062-.02.07-.057l1.985-8.688a.075.075 0 0 0-.054-.086l-3.112-.71z"></path><path d="M17.225 6.078l-3.317-.758V4.264a.998.998 0 0 0-.997-.997H7.65a.998.998 0 0 0-.997.997v.882l-3.896.968A.998.998 0 0 0 2.03 7.32l2.15 8.65a.995.995 0 0 0 1.208.726l4.482-1.113 4.926 1.125a1.004 1.004 0 0 0 1.194-.75l1.985-8.687a.998.998 0 0 0-.75-1.192zM10.27 14.53l-.403.1-.47.117-.456.113-3.776.94a.072.072 0 0 1-.087-.053L2.927 7.1a.072.072 0 0 1 .053-.088L6.653 6.1l.462-.114.462-.114.526-.132c.028 0 .062.02.07.055l1.853 7.452.047.19.067.27.114.463.068.272a.073.073 0 0 1-.052.088zm.26-3.092L9.07 5.572a1.012 1.012 0 0 0-1.207-.727l-.286.07v-.65c0-.04.033-.073.072-.073h5.26c.038 0 .07.033.07.072v8.91a.074.074 0 0 1-.07.073h-1.932l-.45-1.81zm4.558 4.315a.074.074 0 0 1-.07.056l-3.887-.888a1 1 0 0 0 .09-.702l-.013-.05h1.704c.55 0 .998-.446.998-.995V6.27l3.11.71c.038.01.063.05.055.086l-1.985 8.687z"></path></svg></svg>
