<?xml version="1.0" encoding="utf-8"?>
<!-- Generator: Adobe Illustrator 22.0.0, SVG Export Plug-In . SVG Version: 6.00 Build 0)  -->
<svg version="1.1" xmlns="http://www.w3.org/2000/svg" xmlns:xlink="http://www.w3.org/1999/xlink" x="0px" y="0px"
	 viewBox="0 0 5772 1500" style="enable-background:new 0 0 5772 1500;" xml:space="preserve">
<g>
		<path fill="#72777A" d="M2313.3,492.8c-64.1,0-118.8,27.3-150.3,78.8V312.1h-133.5v691.5h134.5V744c0-77.8,36.8-137.7,109.3-137.7
			c63.1,0,87.2,45.2,87.2,109.3v288h134.5V686.2C2495.2,559,2414.2,492.8,2313.3,492.8z M3276,492.8c-66.2,0-120.9,30.5-148.2,85.1
			c-25.2-63.1-78.8-85.1-136.6-85.1c-62,0-99.8,26.3-125.1,71.5v-58.9h-133.5v498.2h134.5v-289c0-72.5,35.7-108.2,85.1-108.2
			c44.2,0,76.7,29.4,76.7,88.3v309h134.5v-289c0-72.5,37.8-108.2,87.2-108.2c45.2,0,73.6,29.4,73.6,88.3v309h134.5V680.9
			C3458.8,555.9,3370.6,492.8,3276,492.8z M3781.4,492.8c-127.2,0-254.3,90.4-254.3,262.7c0,174.5,130.3,258.5,262.7,258.5
			c79.5,0,151-29.8,203.7-85.9l-92-70.8c-30.7,25.9-68.8,39-110.6,39c-53.6,0-112.5-22.1-124-90.4h341.6c3.2-26.3,4.2-46.2,4.2-63.1
			C4012.6,575.8,3903.3,492.8,3781.4,492.8z M3664.8,704.1c8.4-56.8,48.3-97.7,112.5-97.7c58.8,0,99.8,34.7,106.1,97.7H3664.8z
			 M1751.1,896.4c-59.9,0-131.4-42-131.4-145c0-101.9,68.3-140.8,129.3-140.8c49.4,0,87.2,24.2,117.7,68.3l94.6-79.9
			c-55.7-74.6-140.8-106.1-216.5-106.1c-123,0-258.5,84.1-258.5,263.8c0,179.7,136.6,257.5,256.4,257.5
			c97.7,0,183.9-51.5,235.4-141.9l-96.7-69.4C1848.9,868,1799.5,896.4,1751.1,896.4z M4472.9,572.7c-31.5-51.5-90.4-79.9-161.8-79.9
			c-124,0-245.9,87.2-245.9,259.6c0,174.5,125.1,261.7,251.2,261.7c71.5,0,121.9-28.4,157.6-71.5v61h133.5V312.1h-134.5V572.7z
			 M4335.3,901.6c-80.9,0-136.6-56.7-136.6-149.2c0-94.6,57.8-147.1,134.5-147.1c66.2,0,138.7,39.9,138.7,148.2
			C4471.9,853.3,4409.9,901.6,4335.3,901.6z M4790.3,257.4c-48.3,0-89.3,41-89.3,90.4c0,48.3,41,89.3,89.3,89.3
			c49.4,0,91.4-41,91.4-89.3C4881.7,298.4,4839.7,257.4,4790.3,257.4z M5514.4,897.4c-17.9,0-33.6-10.5-33.6-36.8V505.4h-133.5v57.8
			c-28.4-48.3-86.2-70.4-149.2-70.4c-126.1,0-256.4,90.4-256.4,263.8c0,166,119.8,257.5,245.9,257.5c86.2,0,149.2-43.1,181.8-99.8
			c6.3,57.8,59.9,98.8,119.8,98.8c10.9,0,22-1.5,32.8-4V896.8C5519.4,897.1,5516.9,897.4,5514.4,897.4z M5205.4,898.5
			c-70.4,0-130.3-54.7-130.3-145c0-91.4,62-147.1,133.5-147.1s134.5,56.8,134.5,145C5343.1,842.8,5276.9,898.5,5205.4,898.5z
			 M4724.1,1003.6h134.5V505.4h-134.5V1003.6z"/>
		<path fill="#72777A" d="M578.8,1078.8c0,94.6,76.7,171.2,171.2,171.2s171.2-76.7,171.2-171.2S844.6,907.6,750,907.6S578.8,984.2,578.8,1078.8
			 M592.4,750c0-94.6-76.7-171.2-171.2-171.2S250,655.4,250,750s76.7,171.2,171.2,171.2S592.4,844.6,592.4,750 M921.2,421.2
			c0-94.6-76.7-171.2-171.2-171.2s-171.2,76.7-171.2,171.2c0,94.6,76.7,171.2,171.2,171.2S921.2,515.8,921.2,421.2 M1250,750
			c0-94.6-76.7-171.2-171.2-171.2c-94.6,0-171.2,76.7-171.2,171.2s76.6,171.2,171.2,171.2C1173.3,921.2,1250,844.6,1250,750"/>
</g>
</svg>
