<svg xmlns="http://www.w3.org/2000/svg" xmlns:xlink="http://www.w3.org/1999/xlink" viewBox="0 0 428.29 298.29"><defs><style>.cls-1,.cls-5,.cls-7{fill:none;}.cls-2{fill:#fff;}.cls-3{clip-path:url(#clip-path);}.cls-4{clip-path:url(#clip-path-2);}.cls-5{stroke:#004899;stroke-miterlimit:10;stroke-width:8.58px;}.cls-6{fill:#004899;}.cls-7{stroke:#fff;stroke-width:2.29px;}</style><clipPath id="clip-path"><rect class="cls-1" x="1.14" y="1.14" width="426" height="296"/></clipPath><clipPath id="clip-path-2"><rect class="cls-1" x="28.14" y="34.14" width="375" height="234"/></clipPath></defs><title>Asset 1</title><g id="Layer_2" data-name="Layer 2"><g id="Layer_1-2" data-name="Layer 1"><rect class="cls-2" x="1.14" y="1.14" width="426" height="296"/><g class="cls-3"><g class="cls-4"><g class="cls-4"><path class="cls-5" d="M398.46,200a64.62,64.62,0,0,0-61.4-64.54,50.79,50.79,0,0,0-86.14-49.93A86.76,86.76,0,0,0,87.92,136a64.64,64.64,0,0,0,8.64,128.69H335A64.63,64.63,0,0,0,398.46,200Z"/></g></g><path class="cls-6" d="M253.63,54.16c25.25,0,42.84-8.92,42.84-16.92s-17.59-16.92-42.84-16.92-42.76,8.92-42.76,16.92,17.58,16.92,42.82,16.92"/><path class="cls-6" d="M210.14,50.14V63.91c0,8,17.65,17,43,17s43-9,43-17V49.78c-8.85,6.72-24.6,11.12-43,11.12s-34.13-4.4-43-11.12"/><path class="cls-6" d="M210.14,77.14V91.5c0,8,17.65,17,43,17s43-9,43-17V77.34c-8.85,6.73-24.6,11.13-43,11.13s-34.14-4.4-43-11.12"/><path class="cls-6" d="M210.14,105.14V119c0,8,17.65,17,43,17s43-9,43-17V104.91c-8.85,6.72-24.6,11.12-43,11.12s-34.13-4.4-43-11.12"/></g><path class="cls-6" d="M94.67,223.44c-10.1,0-18.53-3.89-18.53-19.76V197.5c0-16.95,9.55-19.93,18.75-19.93a66.89,66.89,0,0,1,14.25,1.49v6.54c-2.78-.24-9.5-.58-12.46-.58-7,0-11.54,1.56-11.54,12.29v6.41c0,10,3.52,12.57,10.33,12.57,2.1,0,4.19-.06,5.67-.18v-17h8v23A75.45,75.45,0,0,1,94.67,223.44Z"/><path class="cls-6" d="M119.14,222.14v-44h8v44Z"/><path class="cls-6" d="M137.14,222.15v-9h8v9Z"/><path class="cls-6" d="M167,223.09c-9.45,0-13.85-5.36-13.85-15.23v-4.14c0-10,4.38-15.17,13.85-15.17a36.9,36.9,0,0,1,10.15,1.23v6c-4.07-.34-6.88-.51-8.66-.51-4.69,0-7.34,1.5-7.34,8.48v4.08c0,6.93,2.65,8.54,7.34,8.54,1.78,0,4.59-.17,8.66-.51v6A39.84,39.84,0,0,1,167,223.09Z"/><path class="cls-6" d="M185.14,222.14v-46h8v46Z"/><path class="cls-6" d="M217.14,223.28c-9.67,0-15-5-15-15.46v-4.07c0-10.44,5.32-15.39,15-15.39s15,4.95,15,15.39v4.07C232.14,218.33,226.83,223.28,217.14,223.28Zm7-19.6c0-6.59-2.25-9-7.5-9s-7.5,2.44-7.5,9v4.21c0,6.59,2.26,9.1,7.5,9.1s7.5-2.51,7.5-9.1Z"/><path class="cls-6" d="M262.14,222.14V219.7c-4,2.12-7.84,3.54-11.76,3.54-8.87,0-10.24-6.13-10.24-13v-21.1h8v21.12c0,4.71.86,6.43,4.63,6.43,2.16,0,5-.88,8.37-2.24v-25.3h8v33Z"/><path class="cls-6" d="M299.14,222.14v-1.39a17.63,17.63,0,0,1-9.43,2.63c-7.9,0-12.57-4.79-12.57-15.07v-5C277.14,191.6,283.2,188,292,188a38,38,0,0,1,7.15.65V176.14h7v46Zm0-27.13a47.45,47.45,0,0,0-6.41-.6c-4.9,0-7.59,1.4-7.59,9.17v4.89c0,6.23,2,8.57,7,8.57a17.42,17.42,0,0,0,7-1.54Z"/><rect class="cls-7" x="1.14" y="1.14" width="426" height="296"/></g></g></svg>