<?xml version="1.0" encoding="utf-8"?>
<!-- Generator: Adobe Illustrator 16.0.4, SVG Export Plug-In . SVG Version: 6.00 Build 0)  -->
<!DOCTYPE svg PUBLIC "-//W3C//DTD SVG 1.1//EN" "http://www.w3.org/Graphics/SVG/1.1/DTD/svg11.dtd">
<svg version="1.1" id="Ebene_1" xmlns="http://www.w3.org/2000/svg" xmlns:xlink="http://www.w3.org/1999/xlink" x="0px" y="0px"
	 width="283.46px" height="83.622px" viewBox="0 0 283.46 83.622" enable-background="new 0 0 283.46 83.622" xml:space="preserve">
<g id="BoundingBox">
	<rect fill="none" width="283.464" height="83.622"/>
</g>
<g id="Bild-Wortmarke">
	<g id="farbig_2_">
		<g>
			
				<linearGradient id="SVGID_1_" gradientUnits="userSpaceOnUse" x1="288.188" y1="-173.0127" x2="361.5107" y2="-284.7064" gradientTransform="matrix(1 0 0 -1 -279.2695 -185.2227)">
				<stop  offset="0" style="stop-color:#23B9CD"/>
				<stop  offset="0.1759" style="stop-color:#15B5C0"/>
				<stop  offset="0.4062" style="stop-color:#48B69E"/>
				<stop  offset="1" style="stop-color:#46AF64"/>
			</linearGradient>
			<path fill="url(#SVGID_1_)" d="M47.296,18.472c-1.186,0-2.3,0.462-3.138,1.301L30.662,33.271l-5.854-5.853
				c-0.838-0.838-1.952-1.301-3.139-1.301c-1.186,0-2.299,0.463-3.137,1.301c-0.839,0.838-1.301,1.953-1.301,3.138
				c0,1.186,0.462,2.299,1.301,3.138l8.99,8.991c0.838,0.837,1.951,1.298,3.139,1.298c1.183,0,2.298-0.461,3.135-1.298
				l16.636-16.638c0.839-0.837,1.301-1.952,1.301-3.138c0-1.185-0.462-2.3-1.3-3.137C49.596,18.934,48.482,18.472,47.296,18.472z"/>
			
				<linearGradient id="SVGID_2_" gradientUnits="userSpaceOnUse" x1="248.4321" y1="-147.561" x2="381.2072" y2="-321.9353" gradientTransform="matrix(1 0 0 -1 -279.2695 -185.2227)">
				<stop  offset="0" style="stop-color:#23B9CD"/>
				<stop  offset="0.1759" style="stop-color:#15B5C0"/>
				<stop  offset="0.4062" style="stop-color:#48B69E"/>
				<stop  offset="1" style="stop-color:#46AF64"/>
			</linearGradient>
			<path fill="url(#SVGID_2_)" d="M43.318,0H19.357C8.684,0,0,8.684,0,19.355v60.692c0,1.847,1.501,3.348,3.347,3.348h13.14
				c2.07,0,3.275-1.914,3.326-1.996l8.668-16.629c0.062-0.119,1.627-2.917,6.367-2.917h8.5c0.027,0,0.057-0.001,0.088-0.004
				c15.703-0.048,28.473-12.854,28.473-28.56v-4.731C71.908,12.812,59.096,0,43.318,0z M61.774,28.559v4.731
				c0,10.132-8.243,18.398-18.374,18.427c-0.078,0-0.157,0-0.213,0.003h-8.34c-8.124,0-13.35,4.507-15.355,8.366l-6.865,13.176
				h-2.492V19.355c0-5.084,4.137-9.223,9.223-9.223h23.99C53.508,10.133,61.774,18.399,61.774,28.559z"/>
		</g>
		<g>
			
				<linearGradient id="SVGID_3_" gradientUnits="userSpaceOnUse" x1="440.604" y1="-147.146" x2="481.1074" y2="-312.0465" gradientTransform="matrix(1 0 0 -1 -279.2695 -185.2227)">
				<stop  offset="0" style="stop-color:#23B9CD"/>
				<stop  offset="0.1759" style="stop-color:#15B5C0"/>
				<stop  offset="0.4062" style="stop-color:#48B69E"/>
				<stop  offset="1" style="stop-color:#46AF64"/>
			</linearGradient>
			<path fill="url(#SVGID_3_)" d="M182.457,18.256v8.161h6.008v8.224h-6.008v12.204c0,1.519,0.758,2.215,2.402,2.215h3.859v8.604
				h-7.021c-6.326,0-9.488-3.732-9.488-9.808V34.641h-4.304v-8.224c4.189,0,6.581-2.545,6.581-8.161H182.457z"/>
			
				<linearGradient id="SVGID_4_" gradientUnits="userSpaceOnUse" x1="479.6714" y1="-137.5171" x2="520.1747" y2="-302.4176" gradientTransform="matrix(1 0 0 -1 -279.2695 -185.2227)">
				<stop  offset="0" style="stop-color:#23B9CD"/>
				<stop  offset="0.1759" style="stop-color:#15B5C0"/>
				<stop  offset="0.4062" style="stop-color:#48B69E"/>
				<stop  offset="1" style="stop-color:#46AF64"/>
			</linearGradient>
			<path fill="url(#SVGID_4_)" d="M223.888,18.256v8.161h6.009v8.224h-6.009v12.204c0,1.519,0.759,2.215,2.402,2.215h3.859v8.604
				h-7.021c-6.326,0-9.489-3.732-9.489-9.808V34.641h-4.302v-8.224c4.188,0,6.58-2.545,6.58-8.161H223.888z"/>
			
				<linearGradient id="SVGID_5_" gradientUnits="userSpaceOnUse" x1="459.1089" y1="-142.5688" x2="499.6201" y2="-307.5007" gradientTransform="matrix(1 0 0 -1 -279.2695 -185.2227)">
				<stop  offset="0" style="stop-color:#23B9CD"/>
				<stop  offset="0.1759" style="stop-color:#15B5C0"/>
				<stop  offset="0.4062" style="stop-color:#48B69E"/>
				<stop  offset="1" style="stop-color:#46AF64"/>
			</linearGradient>
			<path fill="url(#SVGID_5_)" d="M199.216,12.432c3.545,0,5.886,2.15,5.886,5.504s-2.341,5.504-5.886,5.504
				c-3.541,0-5.883-2.15-5.883-5.504S195.675,12.432,199.216,12.432z M193.902,57.663v-31.25h10.631v31.25H193.902z"/>
			
				<linearGradient id="SVGID_6_" gradientUnits="userSpaceOnUse" x1="497.5767" y1="-133.0825" x2="538.0883" y2="-298.0162" gradientTransform="matrix(1 0 0 -1 -279.2695 -185.2227)">
				<stop  offset="0" style="stop-color:#23B9CD"/>
				<stop  offset="0.1759" style="stop-color:#15B5C0"/>
				<stop  offset="0.4062" style="stop-color:#48B69E"/>
				<stop  offset="1" style="stop-color:#46AF64"/>
			</linearGradient>
			<path fill="url(#SVGID_6_)" d="M240.016,12.432c3.542,0,5.883,2.15,5.883,5.504s-2.341,5.504-5.883,5.504
				s-5.884-2.15-5.884-5.504S236.474,12.432,240.016,12.432z M234.701,57.663v-31.25h10.629v31.25H234.701z"/>
			
				<linearGradient id="SVGID_7_" gradientUnits="userSpaceOnUse" x1="521.5317" y1="-127.1938" x2="562.038" y2="-292.1058" gradientTransform="matrix(1 0 0 -1 -279.2695 -185.2227)">
				<stop  offset="0" style="stop-color:#23B9CD"/>
				<stop  offset="0.1759" style="stop-color:#15B5C0"/>
				<stop  offset="0.4062" style="stop-color:#48B69E"/>
				<stop  offset="1" style="stop-color:#46AF64"/>
			</linearGradient>
			<path fill="url(#SVGID_7_)" d="M266.516,23.764c-9.361,0-16.951,7.587-16.951,16.948c0,9.363,7.59,16.951,16.951,16.951
				c9.36,0,16.948-7.588,16.948-16.951C283.464,31.351,275.876,23.764,266.516,23.764z M266.516,48.689
				c-4.235,0-7.665-3.433-7.665-7.665c0-4.234,3.43-7.666,7.665-7.666c4.231,0,7.664,3.432,7.664,7.666
				C274.18,45.258,270.748,48.689,266.516,48.689z"/>
			
				<linearGradient id="SVGID_8_" gradientUnits="userSpaceOnUse" x1="410.9429" y1="-154.459" x2="451.4475" y2="-319.3646" gradientTransform="matrix(1 0 0 -1 -279.2695 -185.2227)">
				<stop  offset="0" style="stop-color:#23B9CD"/>
				<stop  offset="0.1759" style="stop-color:#15B5C0"/>
				<stop  offset="0.4062" style="stop-color:#48B69E"/>
				<stop  offset="1" style="stop-color:#46AF64"/>
			</linearGradient>
			<path fill="url(#SVGID_8_)" d="M144.312,44.44c0,3.609,3.424,5.938,7.156,5.938c2.973,0,6.168-1.625,7.837-3.229l4.524,5.649
				c0,0-3.766,5.623-13.824,5.623c-10.267,0-16.692-7.022-16.692-16.511v-0.314c0-9.236,4.354-17.843,16.438-17.843
				c10.06,0,15.184,6.707,15.184,14.614v6.073L144.312,44.44L144.312,44.44z M144.312,37.48h10.881v-1.201
				c0-3.29-2.432-4.998-5.377-4.998s-5.504,1.708-5.504,5.505V37.48z"/>
			
				<linearGradient id="SVGID_9_" gradientUnits="userSpaceOnUse" x1="372.6382" y1="-163.9087" x2="413.1455" y2="-328.8246" gradientTransform="matrix(1 0 0 -1 -279.2695 -185.2227)">
				<stop  offset="0" style="stop-color:#23B9CD"/>
				<stop  offset="0.1759" style="stop-color:#15B5C0"/>
				<stop  offset="0.4062" style="stop-color:#48B69E"/>
				<stop  offset="1" style="stop-color:#46AF64"/>
			</linearGradient>
			<path fill="url(#SVGID_9_)" d="M112.795,23.764c-3.51,0-6.771,1.066-9.477,2.895l-0.683-2.144h-8.79v44.251h10.651V55.491
				c2.454,1.381,5.282,2.172,8.298,2.172c9.361,0,16.95-7.588,16.95-16.951C129.745,31.351,122.156,23.764,112.795,23.764z
				 M112.797,48.689c-3.957,0-7.215-2.651-7.622-6.502v-2.326c0.407-3.851,3.665-6.503,7.622-6.503c4.233,0,7.665,3.432,7.665,7.666
				C120.462,45.258,117.03,48.689,112.797,48.689z"/>
		</g>
	</g>
</g>
</svg>
